<svg id="Layer_1" data-name="Layer 1" xmlns="http://www.w3.org/2000/svg" viewBox="0 0 800.02 102.23"><title>logo</title><path d="M-357.68-135h22.21c6.18,15.67,12.44,31.54,19.14,48.51,7-16.53,12.75-32.51,19.3-48.41h22.36v75.69h-16.79v-45.31l-1.1-.22c-6,14.82-12,29.64-18,44.57a70,70,0,0,1-11.31,0q-9-22.16-17.87-44.25l-1.1.11c0,3.65-.06,7.3-.08,10.94,0,3.83,0,7.67,0,11.5v22.62h-16.29C-358.24-62.89-358.64-124-357.68-135Z" transform="translate(668.69 139.8)"/><path d="M-622.46-59.31h-17.3c-1-3.68-1.17-52.2-.16-57.4h17c1.45,2.73,0,5.86,1.14,9.21,3.83-6.75,9.16-10.63,16.84-10.46s12.77,3.78,15.65,11.57c3-6.43,7.58-10,13.83-11.2,10.36-2,21.56,3.32,22.29,15,.9,14.24.22,28.59.22,43.2h-17.49c-1.13-1.24-.65-2.81-.66-4.24,0-8.83,0-17.65,0-26.48a33.91,33.91,0,0,0-.48-6,8,8,0,0,0-7.08-6.69c-3.39-.3-7.23,2.38-8.34,6a19.26,19.26,0,0,0-.7,5.92q.06,13.25,0,26.49c0,1.62.39,3.31-.64,5.08h-16.3c-1.33-1.36-.8-3.11-.81-4.69-.05-8.83,0-17.66,0-26.49a41.31,41.31,0,0,0-.22-5,7.78,7.78,0,0,0-6.55-7.16c-3.16-.56-6.92,1.61-8.5,4.9a15.23,15.23,0,0,0-1.12,6.84q0,13.24,0,26.49C-622-62.78-621.64-61.1-622.46-59.31Z" transform="translate(668.69 139.8)"/><path d="M-484.66-55.41h16.82c4.93,5.35,9.78,6.73,15.47,4.54a8.56,8.56,0,0,0,5.78-6.89,19.86,19.86,0,0,0,.4-3c.06-2.49,0-5,0-7.48-.54.06-1,0-1.14.15-11,13.58-31.22,10.53-37.3-5.88A40.69,40.69,0,0,1-483.36-106c6-13,21.63-13.84,29.84-8.92,2.72,1.63,4.57,4.16,7.12,7.26.17-3.49.3-6,.44-8.76,2.95-1,5.95-.38,8.89-.5s5.63,0,8.16,0c1.54,1.26,1.13,2.69,1.13,4,0,17.32.09,34.63,0,52-.06,11-4.88,17.62-15.42,21.17-9.08,3.06-18.38,2.9-27.51.46-5.2-1.38-9.79-4.26-12.56-9.22C-484.39-50.64-485.71-52.66-484.66-55.41ZM-446.11-88c-.26-3.34-.73-6.65-2.43-9.59-1.85-3.21-4.61-5.32-8.43-5.36a9.37,9.37,0,0,0-8.8,5.57,19.77,19.77,0,0,0-.32,17.82,9.09,9.09,0,0,0,8.62,5.7,9.47,9.47,0,0,0,9.3-5.46A22.55,22.55,0,0,0-446.11-88Z" transform="translate(668.69 139.8)"/><path d="M-206.65-55.42h17c3.35,4.87,8.2,6.35,13.88,5a8.85,8.85,0,0,0,7.29-7.86,63.59,63.59,0,0,0,.26-9.95c-.49.06-1,0-1.09.16-5.41,8.14-13.56,9.31-22.08,7.76s-13.83-7.67-16.07-16c-2.48-9.2-2.39-18.45,1.13-27.43,6.31-16.1,25.67-19.05,36.44-5.61a1.43,1.43,0,0,0,1.55.64c.12-2.48.25-5,.4-7.92h17.45c1.13.94.72,2.36.72,3.62,0,17.32.09,34.63,0,52-.06,11.12-4.8,17.59-15.43,21.16-9.08,3.06-18.38,2.9-27.51.46-5.2-1.39-9.79-4.26-12.55-9.23C-206.39-50.64-207.72-52.66-206.65-55.42ZM-190-88.69a19.37,19.37,0,0,0,1.87,9.2c1.76,3.51,4.46,5.59,8.64,5.66s7.46-1.7,9.26-5.5a19.63,19.63,0,0,0-.38-18.25,9.31,9.31,0,0,0-8.44-5.34c-4,0-7,2.13-8.79,5.59A18.33,18.33,0,0,0-190-88.69Z" transform="translate(668.69 139.8)"/><path d="M90.53-67.27c-.82,2.42.27,5.14-.79,7.91H72.21V-134.9c6-.82,11.88-.18,18.4-.39v26.52c3.63-3.87,7.13-7.1,12.08-8.17,10.53-2.3,22,1,26.22,14a47,47,0,0,1-.22,30.41c-2.64,7.63-7.85,12.58-16.21,13.71s-15.57-.49-20.58-7.93A1.05,1.05,0,0,0,90.53-67.27ZM112-87.89a17.43,17.43,0,0,0-2.74-10.39c-4.17-6.24-12-6.25-16.07,0-3.65,5.58-3.79,14.59-.15,20.34,4.12,6.49,12.23,6.47,16.37,0A17.37,17.37,0,0,0,112-87.89Z" transform="translate(668.69 139.8)"/><path d="M.92-59.27H-17c-1.2-1.11-.78-2.52-.78-3.8,0-8.5,0-17,0-25.49,0-1.5,0-3-.1-4.49-.44-6-4.08-9.69-9.38-9.57a9.91,9.91,0,0,0-9.57,9.68c-.21,4-.06,8-.06,12v21.62H-55.51v-75.75a155,155,0,0,1,18.28,0v27c3-4.12,6.33-7.19,10.91-8.77,13.8-4.79,25.81,3,27.17,17.54.11,1.15.07,2.33.07,3.49Z" transform="translate(668.69 139.8)"/><path d="M-232.44-59.26c-1.21-2.19.1-4.49-1.32-6.8-4.52,5.91-10.75,7.76-17.6,7.62-10.74-.21-21-8.46-17.77-22,1.13-4.78,4.18-7.82,8.4-9.91,5.82-2.87,12.16-3.13,18.46-3.55,3-.2,5.94.13,8.76-.54.7-5.67-.41-8-4.38-9.58-4.71-1.9-8.5-.39-12.79,5.26a116.07,116.07,0,0,1-16-.19c.13-6.33,3-10.84,7.79-14.3a24.06,24.06,0,0,1,11.05-4.23c9-1.17,18-1.12,25.84,4.5,4.31,3.07,6.94,7.24,7,12.59.11,13.15,0,26.3,0,39.45a10.87,10.87,0,0,1-.38,1.69A135.09,135.09,0,0,1-232.44-59.26Zm-.88-24.11c-4-.39-12.13.37-14,1.16-2.36,1-3.85,2.55-3.75,5.28.09,2.51,1.66,3.9,3.74,4.82C-240.14-68.91-232.68-74.74-233.32-83.37Z" transform="translate(668.69 139.8)"/><path d="M-493.18-59.29h-17.07c-1.21-2-.05-4.31-1.06-6.56a49,49,0,0,1-4.91,4.17c-7,4.61-17.6,4.17-24.52-.55-9.08-6.19-9.16-22.9,1.78-28,6.08-2.83,12.47-3.22,18.9-3.74,2.95-.24,5.94.11,8.76-.53.65-5.85-.39-8-4.39-9.61-4.65-1.86-8.26-.42-12.86,5.34-5,0-10.3.4-15.82-.3a16.61,16.61,0,0,1,7-13.77,24.34,24.34,0,0,1,11.9-4.77c8.69-1,17.29-1.07,25,4.06,4.54,3,7.56,7.16,7.62,12.74.14,13.14,0,26.29,0,39.43A12.69,12.69,0,0,1-493.18-59.29Zm-18.23-24.57c-4.24.36-8.21.48-12.12,1.09-3.34.51-5.42,3-5.39,5.63s1.84,4.43,5,5.42C-516.6-69.47-510.16-75.37-511.41-83.86Z" transform="translate(668.69 139.8)"/><path d="M63.41-59.18H46.53c-1.39-2.67-.19-5.6-.88-8.27a1.21,1.21,0,0,0-1.58.78C41.13-59.83,31.62-56.42,23-58.78s-14-8-14.91-16.6a86.71,86.71,0,0,1-.2-9c0-10.64,0-21.27,0-32.24H25.52c1.19,1.13.69,2.71.7,4.13.05,8.16,0,16.32,0,24.47a43.35,43.35,0,0,0,.47,6.45c.78,4.91,4.69,8.34,9.14,8.23A9.94,9.94,0,0,0,45-81.76a36.09,36.09,0,0,0,.16-5c0-9.8,0-19.61,0-29.8h18C64.11-113.2,64.39-66.31,63.41-59.18Z" transform="translate(668.69 139.8)"/><path d="M-365.09-83.95h-38.19c-.77,5.7,1.48,9.67,6.43,11.88s10,.66,14.82-5c2.56-.56,5.23-.24,7.88-.25s5.29-.29,8.25.39c-.3,5.73-3.1,9.81-7.24,13.11a26,26,0,0,1-12.22,5.27c-7,1.15-13.94,1-20.61-1.62-7.66-3-12.4-8.84-14.63-16.61a38.79,38.79,0,0,1,.05-22.16c3-9.82,9.3-16.33,19.65-18.41,7-1.4,14-1.27,20.54,1.67,10,4.47,14.33,12.91,15.24,23.4C-364.91-89.8-365.09-87.29-365.09-83.95Zm-18.19-11c-.43-5.8-4.61-9.89-9.81-9.89s-9.45,4.17-9.77,9.89Z" transform="translate(668.69 139.8)"/><path d="M-61.64-94.28c-5.42.55-10.87.15-16.07.25-1.6-1.2-1.27-2.92-2-4.22-1.82-3.33-4.45-5.53-8.24-5.6a8.75,8.75,0,0,0-8.4,5.31,24,24,0,0,0,.06,21.2,8.71,8.71,0,0,0,8.47,5.18c4-.14,6.83-2.38,8.48-6a31.63,31.63,0,0,0,1.1-3.24h16.71a22.29,22.29,0,0,1-7.94,17.75c-9,7.91-30.34,7.72-39-.93a25.39,25.39,0,0,1-5.87-8,37.81,37.81,0,0,1-.35-30.06c3.9-9.54,11.72-14.2,21.65-15.28a38.36,38.36,0,0,1,14.37.93C-68.37-114.14-61.72-105.49-61.64-94.28Z" transform="translate(668.69 139.8)"/><path d="M-649.36-59.2h-18.39c-1-3.72-1.32-67.23-.38-75.76,6.11-.7,12.3-.16,18.77-.3Z" transform="translate(668.69 139.8)"/><path d="M-123.84-59.26h-17.88v-57.29h17.61C-123.1-113.29-122.79-66.3-123.84-59.26Z" transform="translate(668.69 139.8)"/><path d="M-142.15-130.56c0-5.47,3.87-9.27,9.4-9.24a9.3,9.3,0,0,1,9.6,9.31c0,5.29-4.16,9.22-9.65,9.19S-142.15-125-142.15-130.56Z" transform="translate(668.69 139.8)"/></svg>